<?xml version="1.0" encoding="iso-8859-1"?>
<!-- Generator: Adobe Illustrator 19.0.0, SVG Export Plug-In . SVG Version: 6.00 Build 0)  -->
<svg version="1.1" id="Layer_1" xmlns="http://www.w3.org/2000/svg" xmlns:xlink="http://www.w3.org/1999/xlink" x="0px" y="0px"
	 viewBox="0 0 512 512" style="enable-background:new 0 0 512 512;" xml:space="preserve">
<g>
	<g>
		<path d="M429.199,134.378c-24.525-38.942-63.528-67.023-111.504-80.366C313.646,23.569,287.533,0,256,0
			s-57.646,23.569-61.695,54.01c-47.976,13.343-86.979,41.424-111.504,80.366c-46.398,4.912-82.667,44.278-82.667,91.957
			c0,46.594,34.645,85.229,79.524,91.548L118.233,512h275.535l38.574-194.117c44.878-6.319,79.524-44.955,79.524-91.548
			C511.865,178.656,475.596,139.29,429.199,134.378z M256,33.391c15.918,0,28.867,12.949,28.867,28.867
			c0,15.918-12.949,28.866-28.867,28.866s-28.867-12.949-28.867-28.867C227.133,46.339,240.082,33.391,256,33.391z M145.642,478.609
			l-32.009-161.075c18.767-2.393,31.732-7.777,40.231-12.852c4.464,3.037,10.102,6.271,16.809,8.95l10.277,164.978H145.642z
			 M297.596,478.609h-83.19l-9.907-159.037c24.24-0.531,41.129-7.975,51.503-14.712c10.374,6.737,27.263,14.181,51.503,14.712
			L297.596,478.609z M366.358,478.609H331.05l10.278-164.98c6.679-2.669,12.3-5.887,16.756-8.913
			c7.761,4.842,27.124,11.178,40.281,12.831L366.358,478.609z M419.391,285.418c-33.697,0-46.624-10.759-48.539-12.548
			l-10.943-17.348l-14.402,16.618c-1.154,1.195-14.099,14.093-35.267,14.093c-27.346,0-40.056-12.172-41.584-13.745l-12.253-16.589
			l-13.036,16.567c-1.424,1.475-14.123,13.767-41.607,13.767c-21.016,0-33.927-12.714-35.24-14.067l-13.417-17.476l-11.938,18.163
			c-1.851,1.74-14.751,12.565-48.557,12.565c-32.579,0-59.083-26.505-59.083-59.083c0-32.578,26.505-59.083,59.083-59.083h9.803
			l4.776-8.558c23.413-41.948,60.526-61.873,91.868-71.313c9.677,21.848,31.553,37.134,56.944,37.134s47.268-15.287,56.944-37.134
			c31.342,9.44,68.457,29.364,91.868,71.313l4.776,8.558h9.803c32.579,0,59.083,26.505,59.083,59.083
			C478.474,258.913,451.969,285.418,419.391,285.418z"/>
	</g>
</g>
<g>
</g>
<g>
</g>
<g>
</g>
<g>
</g>
<g>
</g>
<g>
</g>
<g>
</g>
<g>
</g>
<g>
</g>
<g>
</g>
<g>
</g>
<g>
</g>
<g>
</g>
<g>
</g>
<g>
</g>
</svg>
